<svg xmlns="http://www.w3.org/2000/svg" xmlns:xlink="http://www.w3.org/1999/xlink" width="180" zoomAndPan="magnify" viewBox="0 0 135 30.000001" height="40" preserveAspectRatio="xMidYMid meet" version="1.0"><defs><g/><clipPath id="ff49e1d70a"><path d="M 16 5.867188 L 19 5.867188 L 19 20 L 16 20 Z M 16 5.867188 " clip-rule="nonzero"/></clipPath><clipPath id="f29020eaae"><path d="M 5.082031 9 L 8 9 L 8 23.285156 L 5.082031 23.285156 Z M 5.082031 9 " clip-rule="nonzero"/></clipPath><clipPath id="4c03dceb78"><path d="M 20 9 L 22.5 9 L 22.5 23 L 20 23 Z M 20 9 " clip-rule="nonzero"/></clipPath></defs><g clip-path="url(#ff49e1d70a)"><path fill="#3c50e0" d="M 18.617188 7.46875 L 18.617188 17.535156 L 17.566406 17.535156 L 17.566406 19.136719 L 17.402344 19.136719 L 17.402344 17.535156 L 16.347656 17.535156 L 16.347656 7.46875 L 17.402344 7.46875 L 17.402344 5.867188 L 17.566406 5.867188 L 17.566406 7.46875 Z M 18.617188 7.46875 " fill-opacity="1" fill-rule="nonzero"/></g><g clip-path="url(#f29020eaae)"><path fill="#3c50e0" d="M 7.351562 11.496094 L 7.351562 21.558594 L 6.300781 21.558594 L 6.300781 23.160156 L 6.136719 23.160156 L 6.136719 21.558594 L 5.082031 21.558594 L 5.082031 11.496094 L 6.136719 11.496094 L 6.136719 9.894531 L 6.300781 9.894531 L 6.300781 11.496094 Z M 7.351562 11.496094 " fill-opacity="1" fill-rule="nonzero"/></g><path fill="#3c50e0" d="M 11.109375 8.832031 L 11.109375 18.898438 L 10.054688 18.898438 L 10.054688 20.5 L 9.886719 20.5 L 9.886719 18.898438 L 8.835938 18.898438 L 8.835938 8.832031 L 9.886719 8.832031 L 9.886719 7.230469 L 10.054688 7.230469 L 10.054688 8.832031 Z M 11.109375 8.832031 " fill-opacity="1" fill-rule="nonzero"/><path fill="#3c50e0" d="M 14.867188 9.925781 L 14.867188 19.992188 L 13.8125 19.992188 L 13.8125 21.59375 L 13.644531 21.59375 L 13.644531 19.992188 L 12.589844 19.992188 L 12.589844 9.925781 L 13.644531 9.925781 L 13.644531 8.328125 L 13.8125 8.328125 L 13.8125 9.925781 Z M 14.867188 9.925781 " fill-opacity="1" fill-rule="nonzero"/><g clip-path="url(#4c03dceb78)"><path fill="#3c50e0" d="M 22.375 11.207031 L 21.320312 11.207031 L 21.320312 9.601562 L 21.152344 9.601562 L 21.152344 11.207031 L 20.101562 11.207031 L 20.101562 21.269531 L 21.152344 21.269531 L 21.152344 22.875 L 21.320312 22.875 L 21.320312 21.269531 L 22.375 21.269531 Z M 22.375 11.207031 " fill-opacity="1" fill-rule="nonzero"/></g><g fill="#3c50e0" fill-opacity="1"><g transform="translate(28.115925, 20.685486)"><g><path d="M 1.53125 0 L 1.53125 -11.75 L 6.25 -11.75 C 7.457031 -11.75 8.367188 -11.46875 8.984375 -10.90625 C 9.609375 -10.34375 9.921875 -9.570312 9.921875 -8.59375 C 9.921875 -7.875 9.738281 -7.285156 9.375 -6.828125 C 9.019531 -6.378906 8.484375 -6.035156 7.765625 -5.796875 L 7.765625 -5.625 C 8.128906 -5.457031 8.425781 -5.21875 8.65625 -4.90625 C 8.882812 -4.59375 9.097656 -4.125 9.296875 -3.5 L 10.46875 0 L 8.09375 0 L 6.9375 -3.515625 C 6.820312 -3.867188 6.691406 -4.140625 6.546875 -4.328125 C 6.398438 -4.523438 6.210938 -4.664062 5.984375 -4.75 C 5.753906 -4.84375 5.457031 -4.890625 5.09375 -4.890625 L 3.84375 -4.890625 L 3.84375 0 Z M 5.96875 -6.734375 C 7.082031 -6.734375 7.640625 -7.257812 7.640625 -8.3125 C 7.640625 -9.375 7.082031 -9.90625 5.96875 -9.90625 L 3.84375 -9.90625 L 3.84375 -6.734375 Z M 5.96875 -6.734375 "/></g></g></g><g fill="#3c50e0" fill-opacity="1"><g transform="translate(39.092009, 20.685486)"><g><path d="M 2.390625 -9.921875 C 1.984375 -9.921875 1.65625 -10.039062 1.40625 -10.28125 C 1.15625 -10.53125 1.03125 -10.847656 1.03125 -11.234375 C 1.03125 -11.609375 1.15625 -11.914062 1.40625 -12.15625 C 1.65625 -12.40625 1.984375 -12.53125 2.390625 -12.53125 C 2.648438 -12.53125 2.882812 -12.472656 3.09375 -12.359375 C 3.3125 -12.242188 3.476562 -12.085938 3.59375 -11.890625 C 3.707031 -11.703125 3.765625 -11.484375 3.765625 -11.234375 C 3.765625 -10.984375 3.707031 -10.757812 3.59375 -10.5625 C 3.476562 -10.363281 3.3125 -10.207031 3.09375 -10.09375 C 2.882812 -9.976562 2.648438 -9.921875 2.390625 -9.921875 Z M 1.28125 0 L 1.28125 -8.859375 L 3.5 -8.859375 L 3.5 0 Z M 1.28125 0 "/></g></g></g><g fill="#3c50e0" fill-opacity="1"><g transform="translate(43.861426, 20.685486)"><g><path d="M 4.59375 3.765625 C 3.132812 3.765625 2.054688 3.546875 1.359375 3.109375 C 0.660156 2.679688 0.3125 2.085938 0.3125 1.328125 C 0.3125 0.859375 0.457031 0.472656 0.75 0.171875 C 1.050781 -0.117188 1.484375 -0.316406 2.046875 -0.421875 L 2.046875 -0.59375 C 1.742188 -0.769531 1.523438 -0.96875 1.390625 -1.1875 C 1.265625 -1.414062 1.203125 -1.675781 1.203125 -1.96875 C 1.203125 -2.675781 1.664062 -3.15625 2.59375 -3.40625 L 2.59375 -3.578125 C 2.113281 -3.847656 1.753906 -4.1875 1.515625 -4.59375 C 1.273438 -5 1.15625 -5.488281 1.15625 -6.0625 C 1.15625 -6.644531 1.285156 -7.160156 1.546875 -7.609375 C 1.816406 -8.054688 2.210938 -8.40625 2.734375 -8.65625 C 3.265625 -8.90625 3.894531 -9.03125 4.625 -9.03125 C 5.363281 -9.03125 5.953125 -8.898438 6.390625 -8.640625 C 6.660156 -9.035156 6.816406 -9.492188 6.859375 -10.015625 L 7.03125 -10.125 L 8.625 -9.734375 C 8.582031 -9.304688 8.460938 -8.945312 8.265625 -8.65625 C 8.066406 -8.375 7.753906 -8.117188 7.328125 -7.890625 L 7.328125 -7.71875 C 7.828125 -7.28125 8.078125 -6.664062 8.078125 -5.875 C 8.078125 -5.332031 7.941406 -4.84375 7.671875 -4.40625 C 7.398438 -3.976562 7.003906 -3.632812 6.484375 -3.375 C 5.960938 -3.125 5.34375 -3 4.625 -3 L 4.28125 -3.015625 C 4.0625 -3.023438 3.910156 -3.03125 3.828125 -3.03125 C 3.628906 -3.03125 3.472656 -2.972656 3.359375 -2.859375 C 3.242188 -2.753906 3.1875 -2.613281 3.1875 -2.4375 C 3.1875 -2.25 3.257812 -2.101562 3.40625 -2 C 3.550781 -1.894531 3.769531 -1.835938 4.0625 -1.828125 L 6.046875 -1.765625 C 8.003906 -1.703125 8.984375 -0.859375 8.984375 0.765625 C 8.984375 1.335938 8.835938 1.847656 8.546875 2.296875 C 8.253906 2.742188 7.78125 3.097656 7.125 3.359375 C 6.476562 3.628906 5.632812 3.765625 4.59375 3.765625 Z M 4.625 -4.5625 C 5.050781 -4.5625 5.382812 -4.6875 5.625 -4.9375 C 5.863281 -5.1875 5.984375 -5.546875 5.984375 -6.015625 C 5.984375 -6.484375 5.863281 -6.84375 5.625 -7.09375 C 5.382812 -7.34375 5.050781 -7.46875 4.625 -7.46875 C 4.1875 -7.46875 3.847656 -7.34375 3.609375 -7.09375 C 3.378906 -6.84375 3.265625 -6.484375 3.265625 -6.015625 C 3.265625 -5.546875 3.378906 -5.1875 3.609375 -4.9375 C 3.847656 -4.6875 4.1875 -4.5625 4.625 -4.5625 Z M 4.59375 2.140625 C 5.351562 2.140625 5.90625 2.03125 6.25 1.8125 C 6.59375 1.601562 6.765625 1.328125 6.765625 0.984375 C 6.765625 0.710938 6.675781 0.507812 6.5 0.375 C 6.332031 0.238281 6.050781 0.164062 5.65625 0.15625 L 3.90625 0.078125 C 3.851562 0.078125 3.800781 0.0703125 3.75 0.0625 C 3.695312 0.0625 3.644531 0.0625 3.59375 0.0625 C 3.21875 0.0625 2.929688 0.140625 2.734375 0.296875 C 2.546875 0.460938 2.453125 0.6875 2.453125 0.96875 C 2.453125 1.34375 2.628906 1.628906 2.984375 1.828125 C 3.347656 2.035156 3.882812 2.140625 4.59375 2.140625 Z M 4.59375 2.140625 "/></g></g></g><g fill="#3c50e0" fill-opacity="1"><g transform="translate(53.071059, 20.685486)"><g><path d="M 1.28125 0 L 1.28125 -12.421875 L 3.5 -12.421875 L 3.5 -7.703125 L 3.671875 -7.671875 C 3.960938 -8.109375 4.320312 -8.441406 4.75 -8.671875 C 5.1875 -8.910156 5.707031 -9.03125 6.3125 -9.03125 C 8.257812 -9.03125 9.234375 -7.921875 9.234375 -5.703125 L 9.234375 0 L 7.015625 0 L 7.015625 -5.421875 C 7.015625 -6.023438 6.894531 -6.460938 6.65625 -6.734375 C 6.414062 -7.015625 6.039062 -7.15625 5.53125 -7.15625 C 4.90625 -7.15625 4.410156 -6.945312 4.046875 -6.53125 C 3.679688 -6.113281 3.5 -5.46875 3.5 -4.59375 L 3.5 0 Z M 1.28125 0 "/></g></g></g><g fill="#3c50e0" fill-opacity="1"><g transform="translate(63.444944, 20.685486)"><g><path d="M 6.109375 -2.109375 L 6.6875 -0.46875 C 6.445312 -0.269531 6.144531 -0.113281 5.78125 0 C 5.414062 0.113281 5.003906 0.171875 4.546875 0.171875 C 3.585938 0.171875 2.859375 -0.0859375 2.359375 -0.609375 C 1.859375 -1.128906 1.609375 -1.890625 1.609375 -2.890625 L 1.609375 -7.109375 L 0.265625 -7.109375 L 0.265625 -8.875 L 1.609375 -8.875 L 1.609375 -10.59375 L 3.84375 -10.953125 L 3.84375 -8.875 L 6.359375 -8.875 L 6.359375 -7.109375 L 3.84375 -7.109375 L 3.84375 -3.046875 C 3.84375 -2.609375 3.929688 -2.289062 4.109375 -2.09375 C 4.296875 -1.894531 4.5625 -1.796875 4.90625 -1.796875 C 5.300781 -1.796875 5.644531 -1.898438 5.9375 -2.109375 Z M 6.109375 -2.109375 "/></g></g></g><g fill="#3c50e0" fill-opacity="1"><g transform="translate(70.326073, 20.685486)"><g><path d="M 8.75 -3.921875 L 3.0625 -3.921875 C 3.125 -3.148438 3.34375 -2.585938 3.71875 -2.234375 C 4.09375 -1.890625 4.601562 -1.71875 5.25 -1.71875 C 5.757812 -1.71875 6.171875 -1.8125 6.484375 -2 C 6.804688 -2.195312 7.0625 -2.488281 7.25 -2.875 L 7.421875 -2.875 L 8.90625 -1.921875 C 8.613281 -1.296875 8.175781 -0.789062 7.59375 -0.40625 C 7.007812 -0.0195312 6.226562 0.171875 5.25 0.171875 C 4.332031 0.171875 3.539062 0 2.875 -0.34375 C 2.207031 -0.695312 1.691406 -1.21875 1.328125 -1.90625 C 0.972656 -2.59375 0.796875 -3.429688 0.796875 -4.421875 C 0.796875 -5.429688 0.984375 -6.28125 1.359375 -6.96875 C 1.742188 -7.664062 2.257812 -8.179688 2.90625 -8.515625 C 3.550781 -8.859375 4.28125 -9.03125 5.09375 -9.03125 C 6.34375 -9.03125 7.300781 -8.695312 7.96875 -8.03125 C 8.632812 -7.363281 8.96875 -6.390625 8.96875 -5.109375 C 8.96875 -4.640625 8.953125 -4.28125 8.921875 -4.03125 Z M 6.84375 -5.359375 C 6.820312 -6.035156 6.664062 -6.523438 6.375 -6.828125 C 6.082031 -7.140625 5.65625 -7.296875 5.09375 -7.296875 C 3.96875 -7.296875 3.304688 -6.648438 3.109375 -5.359375 Z M 6.84375 -5.359375 "/></g></g></g><g fill="#3c50e0" fill-opacity="1"><g transform="translate(79.953231, 20.685486)"><g><path d="M 5.15625 0.171875 C 4.28125 0.171875 3.515625 -0.00390625 2.859375 -0.359375 C 2.203125 -0.722656 1.691406 -1.25 1.328125 -1.9375 C 0.972656 -2.625 0.796875 -3.453125 0.796875 -4.421875 C 0.796875 -5.398438 0.972656 -6.234375 1.328125 -6.921875 C 1.691406 -7.617188 2.203125 -8.144531 2.859375 -8.5 C 3.515625 -8.851562 4.28125 -9.03125 5.15625 -9.03125 C 6.019531 -9.03125 6.78125 -8.851562 7.4375 -8.5 C 8.09375 -8.144531 8.601562 -7.617188 8.96875 -6.921875 C 9.332031 -6.234375 9.515625 -5.398438 9.515625 -4.421875 C 9.515625 -3.453125 9.332031 -2.625 8.96875 -1.9375 C 8.601562 -1.25 8.09375 -0.722656 7.4375 -0.359375 C 6.78125 -0.00390625 6.019531 0.171875 5.15625 0.171875 Z M 5.15625 -1.71875 C 6.53125 -1.71875 7.21875 -2.617188 7.21875 -4.421875 C 7.21875 -5.359375 7.039062 -6.046875 6.6875 -6.484375 C 6.332031 -6.921875 5.820312 -7.140625 5.15625 -7.140625 C 3.769531 -7.140625 3.078125 -6.234375 3.078125 -4.421875 C 3.078125 -2.617188 3.769531 -1.71875 5.15625 -1.71875 Z M 5.15625 -1.71875 "/></g></g></g><g fill="#3c50e0" fill-opacity="1"><g transform="translate(90.246822, 20.685486)"><g><path d="M 4.0625 0.171875 C 3.0625 0.171875 2.320312 -0.0976562 1.84375 -0.640625 C 1.375 -1.191406 1.140625 -1.972656 1.140625 -2.984375 L 1.140625 -8.859375 L 3.359375 -8.859375 L 3.359375 -3.265625 C 3.359375 -2.722656 3.472656 -2.328125 3.703125 -2.078125 C 3.941406 -1.835938 4.304688 -1.71875 4.796875 -1.71875 C 5.410156 -1.71875 5.890625 -1.914062 6.234375 -2.3125 C 6.578125 -2.71875 6.75 -3.351562 6.75 -4.21875 L 6.75 -8.859375 L 8.96875 -8.859375 L 8.96875 0 L 6.84375 0 L 6.84375 -1.296875 L 6.671875 -1.34375 C 6.390625 -0.832031 6.039062 -0.453125 5.625 -0.203125 C 5.21875 0.046875 4.695312 0.171875 4.0625 0.171875 Z M 4.0625 0.171875 "/></g></g></g><g fill="#3c50e0" fill-opacity="1"><g transform="translate(100.492237, 20.685486)"><g><path d="M 4.140625 0.171875 C 3.535156 0.171875 2.984375 0.101562 2.484375 -0.03125 C 1.984375 -0.175781 1.550781 -0.375 1.1875 -0.625 C 0.832031 -0.875 0.570312 -1.160156 0.40625 -1.484375 L 1.640625 -2.8125 L 1.8125 -2.8125 C 2.101562 -2.414062 2.445312 -2.117188 2.84375 -1.921875 C 3.25 -1.722656 3.6875 -1.625 4.15625 -1.625 C 4.59375 -1.625 4.921875 -1.703125 5.140625 -1.859375 C 5.359375 -2.015625 5.46875 -2.238281 5.46875 -2.53125 C 5.46875 -2.757812 5.390625 -2.945312 5.234375 -3.09375 C 5.078125 -3.25 4.820312 -3.367188 4.46875 -3.453125 L 3.296875 -3.734375 C 2.410156 -3.941406 1.765625 -4.257812 1.359375 -4.6875 C 0.960938 -5.125 0.765625 -5.675781 0.765625 -6.34375 C 0.765625 -6.894531 0.90625 -7.375 1.1875 -7.78125 C 1.46875 -8.1875 1.863281 -8.492188 2.375 -8.703125 C 2.882812 -8.921875 3.476562 -9.03125 4.15625 -9.03125 C 4.957031 -9.03125 5.617188 -8.914062 6.140625 -8.6875 C 6.671875 -8.457031 7.082031 -8.148438 7.375 -7.765625 L 6.1875 -6.46875 L 6.03125 -6.46875 C 5.78125 -6.75 5.5 -6.953125 5.1875 -7.078125 C 4.882812 -7.210938 4.539062 -7.28125 4.15625 -7.28125 C 3.28125 -7.28125 2.84375 -7.003906 2.84375 -6.453125 C 2.84375 -6.222656 2.921875 -6.035156 3.078125 -5.890625 C 3.242188 -5.753906 3.535156 -5.640625 3.953125 -5.546875 L 5.046875 -5.296875 C 5.941406 -5.109375 6.597656 -4.800781 7.015625 -4.375 C 7.429688 -3.945312 7.640625 -3.375 7.640625 -2.65625 C 7.640625 -2.09375 7.5 -1.597656 7.21875 -1.171875 C 6.9375 -0.742188 6.535156 -0.410156 6.015625 -0.171875 C 5.492188 0.0546875 4.867188 0.171875 4.140625 0.171875 Z M 4.140625 0.171875 "/></g></g></g><g fill="#3c50e0" fill-opacity="1"><g transform="translate(108.658058, 20.685486)"><g><path d="M 9.421875 -11.75 L 9.421875 -9.796875 L 6.03125 -9.796875 L 6.03125 0 L 3.71875 0 L 3.71875 -9.796875 L 0.328125 -9.796875 L 0.328125 -11.75 Z M 9.421875 -11.75 "/></g></g></g><g fill="#3c50e0" fill-opacity="1"><g transform="translate(118.389597, 20.685486)"><g><path d="M 11.265625 0 L 8.828125 0 L 7.953125 -2.703125 L 3.453125 -2.703125 L 2.5625 0 L 0.171875 0 L 4.234375 -11.75 L 7.21875 -11.75 Z M 5.578125 -9.296875 L 4.078125 -4.65625 L 7.296875 -4.65625 L 5.78125 -9.296875 Z M 5.578125 -9.296875 "/></g></g></g></svg>